<?xml version="1.0" encoding="utf-8"?>
<!-- Generator: Adobe Illustrator 21.1.0, SVG Export Plug-In . SVG Version: 6.00 Build 0)  -->
<svg version="1.1" id="Layer_1" xmlns="http://www.w3.org/2000/svg" xmlns:xlink="http://www.w3.org/1999/xlink" x="0px" y="0px"
	 viewBox="0 0 439.2 448.5" style="enable-background:new 0 0 439.2 448.5;" xml:space="preserve">
<style type="text/css">
	.st0{fill:#CE3651;}
	.st1{fill:#FFFFFF;}
</style>
<path class="st0" d="M258.6,93c-0.9,1.9-1,4-0.9,6c0.4,5.7-2.5,9.3-7.3,11.7c-5.2,2.6-10.9,3.8-16.5,5.5c-6.3,1.8-12.6,3.6-17.9,7.7
	c-0.2,0.1-0.4,0.2-0.5,0.3c-3.4,4.4-8.5,5.3-13.4,6.8c-5,1.6-10.1,3.3-14.1,7c-1.6,1.4-2.4,3.3-3.1,5.2c-0.3,0.8-0.6,1.7-0.8,2.6
	c-1.2,5.4-4.5,9-9.7,10.9c-1.5,0.6-2.9,1.5-4.4,2.2s-1.5,1.6-0.6,2.9c3.2,5,7.9,7.2,13.7,7.7c1.4,0.1,2.9,0,4.7,0
	c-1.8-1.5-3.9-2.2-4.3-4.5c-0.1-0.6-0.8-1.3-0.1-1.9c0.6-0.5,1.3,0.1,1.9,0.4c2.2,1.1,4.2,2.7,6.9,1.9c0-0.2,0.1-0.4,0.1-0.4
	c-2.2-3.2-2.3-3.5,1.6-6.2c3.1-2.2,7.8-2.8,10.6-1.2c1.7,1,2.1,3,0.9,4.6c-0.3,0.4-0.5,0.5-1.1,0.2c-5.7-2.5-9.9-0.4-11,5.8
	c-1.4,7.9-7.7,9.3-13.5,5.3c-2.4-1.6-4.1-3.8-6.1-5.8c-2.8-2.7-5.9-4.9-9.7-5.8c-2.9-0.7-5.8-0.7-8.5,0.9c2.5,0.1,5.1,0.1,7.5,1
	c2.1,0.8,3.8,2.1,4.8,4.2c0.2,0.5,0.8,1,0.1,1.7c-0.5,0.5-1.2,0.4-1.7,0.3c-1.8-0.5-3.5-1.2-5.3-1.8c-2.3-0.8-4.7-1.8-7.1,0
	c0.1,0.1,0.2,0.3,0.3,0.3c3.7,0,6.6,2.3,9.8,3.6c2.1,0.9,4.2,0.3,6.3-0.2c2.6-0.6,4.8-0.3,6.8,1.6c2.5,2.4,5.5,3.9,8.8,4.6
	c3.1,0.7,6.6,0.3,9.9-4.8c0.9-1.4,1.7-2.8,2.7-4c1-1.3,2.8-1.2,4.6,0c1.3,0.9,1.6,1.9,0.8,3.4c-2.3,4.4-5.9,7.3-10.5,8.6
	c-2.5,0.7-5.4,0.5-7.9-0.7c-0.5-0.2-1.3-0.7-1.7-0.1c-0.4,0.6,0.2,1.1,0.6,1.6c1.4,1.7,3.5,2.3,5.4,2.7c2.9,0.6,5.8,0.9,8.7,0.1
	c1.3-0.3,2.4-0.8,3.1-2.2c2.2-4.9,6.8-7.1,12-5.9c2.9,0.7,5.8,1.1,8.1-1.4c1.7-1.8,4.2-3.3,3.1-6.5c-0.1-0.4,0.3-1,0.6-1.4
	c1.2-1.6,2.2-3.4,4-4.8c-1.1-0.5-1.9-0.1-2.7,0.3c-1.2,0.6-2.4,1.2-3.8,1.5c-0.8,0.1-1.9,0-1.4-1c1.3-2.4,2.7-5,5.4-6.1
	c3.5-1.5,7.1-0.2,9.5,3.5c2.6,3.9,3.5,8.2,3.8,12.8c0.5,7-2.2,13.2-4.4,19.5c-4,11.1-9.6,21.5-15.5,31.7c-2.6,4.5-5.3,9-7.9,13.6
	c-0.8,1.4-1.6,1.6-3.2,1.1c-4.7-1.3-9.4-2.4-14.3-3c-3-0.4-6-0.9-9-1.1c-7.2-0.6-14.5-0.9-21.8-0.6c-4.4,0.2-8.9,0.2-13.3,0.5
	c-5.5,0.4-11.1,0.5-16.6,0.9c-12.5,1-25.1,0.7-37.6,0.8c-4.5,0-7.1-2-9.8-4.9c-2-2.1-4-4.2-5.8-6.6c-0.3-0.4-0.5-0.8-0.4-1.3
	c0.8-4,0.2-8.2,0.9-12.2c1.1-7,2.2-14.1,4.1-21c2.7-9.8,6.2-19.2,10.9-28.2c4.1-7.8,8.8-15.3,14.4-22.2c2.8-3.3,5.6-6.6,8.5-9.8
	c5.6-6,11.7-11.4,18.3-16.2c7.6-5.7,15.7-10.4,24.3-14.4c9.5-4.4,19.5-7.6,29.8-9.8c6.5-1.4,13-2.2,19.7-2.6
	c4.9-0.3,9.8-0.5,14.6-0.3c10.6,0.5,21,1.9,31.2,4.8c0.4,0.1,0.8,0.1,1.2,0.2C258.2,92.8,258.5,92.9,258.6,93z"/>
<path class="st0" d="M236.5,130.7c3.1-2,6.4-3.5,9.3-5.7c6.7-5,12.1-10.8,13.6-19.5c0.6-3.7,0.8-7.3,0-11c-0.4-1.7,1-1.1,1.7-0.9
	c3.3,1.1,6.6,2.2,9.8,3.4c12.1,4.7,23.4,10.9,33.8,18.7c9.9,7.5,18.7,16.1,26.3,25.9c10,12.9,17.6,27,22.6,42.6
	c2.8,8.7,4.6,17.7,5.9,26.8c0.5,3.6-0.9,5.5-2.9,7.7c-7.1,7.5-14.7,14.4-24.2,18.8c-5.8,2.7-11.9,4.3-18.2,5.2
	c-8.3,1.2-16.7,1.2-25.1,0.8c-6.7-0.3-13.3-1.2-20-2c-5-0.6-10-1.6-15-1.8c-1.7-0.1-3.4-0.3-5.1-0.4c0.5-3.9,1-7.8,1.5-11.6
	c0.7-5.1,1.6-10,4-14.6c1.9-3.5,3.3-7.4,3.7-11.4c0.2-1.6,0.7-1.2,1.6-0.6c2,1.5,4.2,2.8,6.2,4.3c1.2,0.9,1.7,0.6,1.7-0.9
	c-0.2-3.9-0.4-7.8-1.1-11.7c-0.2-1.1,0-2.3,0-3.6c0.6,0.2,1,0.3,1.5,0.4c1.2,0.3,2,0,1.8-1.5c-0.1-1.1,0-2.3,1.1-2.9
	c1.2-0.7,2,0.3,2.9,1.1c0.4-2-0.6-3.5-0.9-5.2c-0.5-2.6-1.1-5.3-1.1-8c0-1.2,0.4-2.2,1.4-2.7c0.9-0.5,1.7,0.1,2.5,0.6
	c1.3,0.8,2.3,1.9,3.4,3c0.2,0.2,0.4,0.4,0.7,0.3c0.3-0.1,0.3-0.5,0.2-0.7c-0.6-2.3-0.6-4.7-1.3-7.1c-1.3-4.1-4.1-6.1-8.2-6.7
	c-1.7-0.2-2.9-0.7-3.3-2.6c-0.3-2-1.1-3.8-0.5-5.9c0.7-2.4,2.5-3.6,4.9-2.8c2.6,0.8,4.3,2.8,6.1,4.8c0.3-4-2.9-9.3-7.8-10.4
	c-3.5-0.8-6.9-0.5-10.3,0.4c-2.3,0.6-4-0.5-4.8-2.9c-0.7-2,0.4-4.5,2.6-5.1c3.8-1,7.7-0.9,11.4,0.6c0.8,0.3,1.5,0.6,2.2,1
	c0.4,0.2,0.9,0.6,1.3,0.2c0.4-0.4,0.1-0.9-0.1-1.3c-2-4.4-5.6-6.9-10.2-7.7c-6.6-1.2-13.1,0.2-19.5,1.6
	C240.9,130.1,238.7,130.3,236.5,130.7z"/>
<path class="st0" d="M267.1,288.2c13.9,0.1,26.3,4.6,37.3,13c6.9,5.3,13.3,11.3,19.5,17.4c1.3,1.2,1.1,1.9,0,3.1
	c-10.4,11.2-22.3,20.7-35.7,28.1c-10.7,5.9-22,10.4-33.9,13.3c-3.6,0.9-7.2,1.8-10.9,2.2c-1.1,0.1-1.5-0.1-1.8-1.3
	c-1-3.7-1.4-7.5-2-11.2c-1-6.9-0.7-13.9-0.8-20.9c-0.1-4.7,0.6-9.3,1.2-14c0.5-4.3,1.3-8.5,2.6-12.7c1.6-5,3.5-9.9,7.7-13.3
	c2.1-1.7,4.7-2,7.1-2.6C260.6,288.4,263.8,288,267.1,288.2z"/>
<path class="st0" d="M176.9,359.3c0.1,1.1-0.5,0.7-1.1,0.6c-4-1.1-7.9-2.8-11.7-4.4c-10.4-4.4-20-10.2-28.9-17
	c-3.3-2.5-6.5-5.2-9.6-8.1c-2.3-2.2-4.6-4.3-6.8-6.5c-2.2-2.3-4.3-4.7-6.4-7.2c-0.8-1-1-1.9,0.1-3c8.9-8.6,18.5-16.2,29.4-22
	c3.9-2.1,7.7-4.4,12.1-5.1c4.3-0.7,8.4-0.2,11.4,3.4c1.8,2.1,2.2,4.9,2.8,7.6c1.6,7,2.6,14,3.4,21.1c0.8,7.4,2,14.9,2.8,22.3
	C175,347,175.9,353.1,176.9,359.3z"/>
<path class="st0" d="M207.5,30.3c-0.4,5.1-2.4,9.5-5.7,13.3c2.2,2.4,4.5,4.6,7,6.7c0.7,0.6,1,0.6,1.7-0.1c2.2-2.1,4-4.4,5.9-6.7
	c0.5-0.6,0.4-1.2,0-1.9c-0.5-0.8-1-1.7-1.4-2.5c0.4-0.4,0.8-0.3,1-0.1c2.1,1.6,3.2,0.7,4.2-1.3c0.7-1.4,1.9-2.6,2.9-3.9
	c0.7-0.8,0.6-1.4,0.2-2.2c-1-1.9-1.9-3.9-3-6.2c5.3,2.2,10.4,3.2,14.9-1.7c0.1,0.3,0.2,0.5,0.3,0.8c-0.5,0.9-1.1,1.9-1.8,3.1
	c1.4,0,2.5,0.2,3.6-0.1c1.2-0.3,1.3,0.2,1.6,1.1c0.8,3.3,1.7,6.6,2.7,9.8c0.4,1.1,0.7,1.2,1.6,0.7c1-0.5,1.9-1.8,2.9-1.4
	c1,0.4,0.7,2,1.1,3.1c0.5,1.3,0.9,2.7,1.6,4c0.5,1,0.7,1.5-0.8,2c-2.9,0.9-2.9,1.2-1.2,3.9c0.9,1.6,1.9,3.1,2.9,4.8
	c-2.7,0.5-5.1,0-7.5,0.5c-1.9,0.4-3.7,0.8-5.5,1.4c-1,0.3-1.4,0.2-1-0.8c0.4-0.8,0.2-1.5,0.2-2.2c0-4.5,0-4.4-4.4-4.5
	c-1.9-0.1-3.7-0.5-5.5-0.9c-0.8-0.2-1-0.2-1.2,0.6c-0.4,1.7-0.9,3.3-1.2,5c-0.2,1.3-0.6,1.2-1.6,0.7c-3.5-1.8-7.3-2.2-11.2-2.1
	c-4.2,0.1-8.1,1.1-11.4,3.7c-1.2,1-1.5,0.6-1.9-0.7c-0.6-2.1-1.7-4-2.7-5.9c-0.5-1-1-1.3-2.2-0.9c-4,1.2-4,1.1-3,5.2
	c0.7,3,0.7,2.8-2.5,3.2c-3.3,0.4-6.4,1.8-9.4,3.1c-0.5,0.2-0.9,0.4-1.6,0.7c0.7-4,1.3-7.9,1.2-11.8c0-1.2-0.2-2-1.5-2.4
	c-1.2-0.4-2.3-1.1-3.3-2.2c1.1-0.4,2.2-0.4,3.1,0c1.7,0.6,1.8-0.3,1.7-1.5c-0.1-1.3-0.3-2.5-0.4-3.8c-0.1-0.7-0.4-0.7-1-0.4
	c-1.2,0.7-2.5,1.2-3.8,1.8c-0.6-1.7,0.1-3.4-0.4-5c-0.4-1.4-0.8-2.7-1.7-3.8c-0.5-0.7-0.7-1.4,0.5-1.7c8.7-2.4,17.3-4.7,26.5-4
	c3.1,0.2,5.9,1.1,7.9,3.8C205.9,31.6,206.5,30,207.5,30.3z M197.5,35.1c-2.4-1.7-8.7-1.5-10.5-0.1c-0.4,0.4-0.3,0.7-0.2,1.1
	c0.3,2.2,0.6,4.5,0.9,6.7c0.1,0.8,0.3,1.1,1.2,0.8c2.5-0.7,4.9-3.3,5.1-5.9c0.1-1.2,0.5-1.7,1.6-1.9
	C196.1,35.7,196.7,35.4,197.5,35.1z M230.2,34.9c-0.6,1.4-1.1,2.6-1.5,3.7c-1.8,4.7-1.8,4.7,3.3,4.2c0.1,0,0.3,0,0.4,0
	c0.9,0,1.2-0.4,0.8-1.3C232.2,39.4,231.2,37.3,230.2,34.9z"/>
<path class="st0" d="M407.2,141.4c-2.6,1.9-5.6,3.1-9.1,3.2c-2,0.1-3.9,0.2-5.9-0.4c-0.7-0.2-1.3,0-1.5,1.1
	c-0.5,3.9-2.8,6.7-6.3,8.2s-7,0.6-10-1.8c-6.1-4.9-9.7-11.5-12.3-18.6c-0.6-1.5-1.5-2.9-1-4.8c0.1-0.5-1-1.3-1.7-2.1
	c4.4-1.1,8.7-2.5,13.1-3.7c3.3-1,4.6-2.7,4.7-5.8c0-0.9,0.5-1.6,1-2.5c0.4,1.3,0.7,2.6,1.1,3.9c0.3,0.8,0.6,1.1,1.7,0.6
	c4.6-2.2,4.6-2.1,0.8-5.2c-0.9-0.7-0.9-0.8-0.3-1.1c1.9-0.8,3.7-1.6,5.5-2.9c1.7-1.2,2.9-3,4.4-4.6c5.9,7.5,11.5,15,14.4,24.2
	c1,3.3,1.3,6.7-0.1,10C405.1,140.9,407.1,140.2,407.2,141.4z M397.4,132.5c-0.3-3.1-2-5.4-3.8-7.6c-0.5-0.6-0.9-0.3-1.4-0.1
	c-2,1.1-4,2.3-6.1,3.4c-1,0.5-0.9,0.9-0.2,1.6c2.6,2.6,5.5,3.5,9,2.2C395.9,131.6,396.6,131.6,397.4,132.5z M383.1,143.6
	c0.3,0,1-0.2,1.7-0.5c1.4-0.7,1.8-1.2,0.2-2.3c-2.6-1.8-4.5-4.2-5.8-7.1c-0.2-0.5-0.2-1.2-1.2-0.9c-3.4,1.2-3.8,2.3-2.2,5.5
	c0.3,0.5,0.5,1,0.8,1.4C378.2,141.7,380,143.5,383.1,143.6z"/>
<path class="st0" d="M389.6,152.4c0,6.3,1.5,11.9,3.7,17.3c0.6,1.4,1.1,1.6,2.5,1c7.8-3.4,15.4-7.3,22.6-11.9
	c0.5-0.3,1.1-0.5,1.6-0.7c-0.3,4.9,0.2,9.7,1.6,14.3c0.3,1,0.4,1.4-0.8,1.6c-5.7,0.9-11.3,2.2-16.8,4.1c-1.3,0.5-2.6,1-4.1,1.5
	c0.9,1.1,1.8,2,2.6,3c-0.2,0.2-0.2,0.3-0.3,0.3c-2.4-0.4-2.2-0.3-2.5,2.3c-0.6,5.2,0,10.3,1.2,15.4c0.3,1.3,0.8,1.5,2.1,1.2
	c8.8-2.1,17.5-4.9,26.1-8.5c-0.3,2.3-0.5,4.3-0.9,6.3c-0.5,2.7-0.5,5.4,0,8.1c0.2,1.1-0.1,1.4-1.2,1.4c-3,0-5.9,0.1-8.9,0.3
	c-4.2,0.3-8.4,0.7-12.5,1.8c0.3,1.4,1.5,2.3,2,3.9c-6.1-2.3-10.4-6.4-13.9-11.5c-3.5-5-5.2-10.8-6.8-16.8c4.6-0.7,9-1.6,12.8-4.5
	c-7.8-2.5-13.2-7.7-17.6-14.4c-1.6-2.5-2.7-5.3-4.2-7.8c-0.4-0.7-0.7-1.5,0.8-1.9C382.6,157.3,386.1,155.1,389.6,152.4z"/>
<path class="st0" d="M130.1,52.5c-1.6-4.5-4-8.2-8.1-10.6c2.9-2.5,6.3-4.2,9.7-5.8c4.4-2.1,9.1-3.6,14.1-4.1
	c6-0.5,15.1,1.4,17.9,8.3c0.3,0.7,0.9,1.4,1.5,1c1.3-1,1.4,0,1.7,0.8c2.9,6.9,1.5,13.3-2.7,19.1c-4.3,5.9-9.9,9.5-17.7,8.9
	c-1.8-0.1-2.9,1.4-4.3,2.2c-1,0.6-1.8,1.4-2.8,2.1c-0.4,0.3-0.7,1-1.1,0.7c-0.4-0.2-0.6-0.9-0.6-1.4c0.1-2.6-0.5-5.1-0.8-7.6
	c-0.6-5.2-2.2-10.2-3.8-15.2c-0.4-1.1-0.9-1.3-1.5-0.1C131.2,51.3,130.7,51.8,130.1,52.5z M149.9,64.4c5.4-3.9,7.2-9.6,5-15.5
	c-0.2-0.5-0.9-1.2,0.1-1.5c2.5-1,0.7-1.8-0.1-2.3c-3.7-2.6-7.7-2.4-11.9-1.4c-1.3,0.3-1.2,0.8-0.8,1.8
	C144.5,51.7,147.1,58,149.9,64.4z"/>
<path class="st0" d="M43.6,160.7c0.2-0.2,0.3-0.4,0.5-0.7c0.6-1,2.6-1.8,1.9-2.8c-0.9-1.2-2.7-1.8-4.2-2.6c-0.5-0.3-0.9,0-0.9,0.7
	c-0.1,1.2-0.3,2.4-0.5,3.8c-0.7-0.2-1.4-0.5-2-0.9c-2-1.5-4.2-2.3-6.7-2.3c-1.3,0-1.3-0.7-1-1.6c2.7-6.7,5-13.6,8.9-19.7
	c1.6-2.6,3.3-5.3,6.1-6.9c1.1-0.6,2.2-1.2,3.4-1.1c1.4,0,2.7,0.1,2-2.3c2.8,1.3,4.1,3.4,5.4,5.4c1.1,1.6,2.1,3.4,2.4,5.4
	c0.2,1.7,1.3,1.6,2.3,1.4c2.8-0.6,5.7-1.4,8.5-2.1c0.5-0.2,1-0.4,1.6-0.1c-1.3,3.9-2.3,7.8-2.2,12c0,1.3-0.5,1.8-1.7,1.2
	c-1.8-0.8-3.9-1-5.8-1.4c-1.5-0.3-2.4,0-3,1.8c-1.1,3.5-1.3,3.5,2.1,4.8c1.1,0.4,2.1,0.9,3.3,1.4c-2.8,4.2-3.7,8.8-4.6,13.7
	c-2-1.4-3.3-3.3-5.1-4.5c-1.2-0.8-2.1-1.9-3.2-2.8c-1.3-1-2.5-1.6-4.2-0.4C45.9,160.5,44.8,161.2,43.6,160.7L43.6,160.7z
	 M49.7,135.3c-0.1,0-0.3,0-0.4,0c-2.2,0.9-5.5,5.9-5.6,8.3c0,0.7,0.4,0.8,0.8,1c2,1,4.1,2,6,3.1c0.8,0.4,1.2,0.2,1.3-0.6
	c0.4-2.5,0.6-5.1-1.4-7c-1.4-1.2-1.5-2.4-0.9-3.9C49.7,136,50,135.6,49.7,135.3z"/>
<path class="st1" d="M60.3,307.9c-3.6,1.9-7.3,1.9-11,1.1c-1.3-0.3-2-0.6-3,1.1c-3.4,6.3-9.9,7.2-14.7,1c-3.9-5.1-5.7-11.2-6.8-17.4
	c-0.2-1,0.6-2.3-1.2-3.1c4.5-0.4,8.5-0.9,12.5-1.7c1.8-0.3,2.6-1.3,2.8-2.9c0.1-1.1,0.8-1.9,1.3-2.8c0.5,0.4,0.3,0.8,0.4,1.2
	c0.2,3.1,0.5,3.3,3.3,2.2c1.6-0.6,1.8-1.3,0.5-2.5c-0.5-0.5-1.2-0.9-1.5-1.8c3.1-0.7,6-1.9,8.2-4.3c0.7-0.8,1.1-0.2,1.4,0.3
	c3.7,6.6,7.2,13.2,8.2,20.8c0.3,2.1,0,4.2-0.9,6.2C59,306.7,58.9,306.7,60.3,307.9z M43.4,305.9c-1.9-1.9-3.7-3.8-4.3-6.3
	c-0.5-1.8-1.1-2-2.8-1.2c-1.2,0.6-1.5,1.2-1.2,2.3c0.5,1.7,1.1,3.2,2.4,4.5C39.3,307.1,40.8,307.3,43.4,305.9z M43.9,295.4
	c1,1.8,2.3,2.9,4.1,3.6c1.7,0.7,3.6-0.7,5.3,0.6c0.1-1.8-0.6-3.2-1.3-4.7c-0.7-1.6-1.5-2.4-3.3-1.3
	C47.2,294.3,45.6,294.7,43.9,295.4z"/>
<path class="st0" d="M346.8,88.8c1.1-1,2.2-1.8,3-2.8c2.5-3.1,5.6-5.2,9.2-6.8c1.1-0.5,1.9-0.7,2.4,0.9c1,3.1,2.5,5.9,4.8,8.2
	c0.3,0.3,1,0.6,0.7,1.1c-0.2,0.3-0.8,0.5-1.3,0.5c-3.6,0.5-6.7,1.9-9.6,4.1c-3.7,2.8-6.3,6.4-8.3,10.5c-0.6,1.3-1.2,1.5-2.2,0.6
	c-2.2-1.8-4.8-3-7.5-4c-1.3-0.5-1.6-1.1-1.1-2.5c1.2-2.9,1.7-6.1,1.9-9.2c0.1-1.6,0.6-3.1,0.4-4.7c-0.7-0.3-0.9,0.5-1.2,0.8
	c-2.3,2.4-4.8,4.7-7.5,6.7c-1.2,0.8-1.8,1.1-2.8-0.4c-2.2-3.3-5.1-5.9-8.9-8c4-0.8,7.5-2.1,10.7-4.2c3.4-2.2,5.7-5.3,7.8-8.6
	c0.4-0.6,0.5-1.3,0.3-1.9c-0.5-1.9-1-3.7-1.6-5.9c1.6,1.3,2.9,2.5,4.4,3.5c2.3,1.7,4.8,2.8,7.5,3.6c1.6,0.4,1.6,1.1,1.4,2.5
	C348.5,78.3,347.6,83.5,346.8,88.8z"/>
<path class="st0" d="M325.2,55c-1.2,0.5-2.3,0.9-3.5,1.3c2.4,2.1,4.3,4.4,5,7.3c1.4,5.5-1.1,10.5-6.4,13.2
	c-3.2,1.7-6.6,1.9-10.2,1.3c-5.9-0.9-11-3.5-16-6.7c-0.5-0.3-1-0.6-1.2-1.4c0.8-0.2,1.5-0.5,2.4-0.8c-1.9-2.2-3.8-4.4-4.8-7.2
	c-1.4-4-0.1-7.2,2.4-10.2c4-4.7,9.3-5,14.8-4.1C315.5,49.2,321.5,51.8,325.2,55z M300.5,66c0.6-0.7,1.2-1.4,1.7-2
	c0.8,0.7,1.5,1.5,2.3,2.1c2.4,2.1,5.2,3.1,8.4,2.4c3.9-0.9,6.4-5.2,5.1-8.5c-0.4-0.9-0.8-1.3-1.5-0.4c-0.9,1.1-1.6,0.8-2.5-0.1
	c-2.2-2.1-4.8-3.2-7.9-3C301,57,298.4,61.4,300.5,66z"/>
<path class="st0" d="M78.6,127.4c-0.3-0.8,0.2-1.7-0.4-2.6c-2,0.8-3.4,2.3-5.4,3c-7.2,2.5-13.5-2.5-14.6-9.3
	c-0.9-5.7,1.1-10.6,3.6-15.4c2-3.8,4.7-6.9,7.7-10.4c0.4,1.5,0,2.8,0.8,3.8c3.9-3.1,8.3-4.3,13.1-2.5c5.6,2.1,8.2,8,7.4,13.5
	c-1.1,7.7-5.5,13.7-10.7,19.1C79.7,127.1,79.3,127.4,78.6,127.4z M76.3,119.6c-2.4-1.7-1.6-2.6,0.2-3.7c2.4-1.4,3.7-3.6,4.2-6.3
	c0.9-4.5-3.3-9.1-7.3-8.2c-0.9,0.2-1.7,0.5-0.8,1.6c0.9,1,0.5,1.6-0.5,2.2c-2.2,1.6-3.7,3.6-4.3,6.3
	C66.9,116.7,70.5,120.5,76.3,119.6z"/>
<path class="st0" d="M264.8,45.3c1,0.2,1.8,0.4,2.7,0.7c-2,5.7,0.7,9.1,5.3,10.8c1.3,0.5,1.6,0.2,1.6-1c-0.1-2.2-0.1-4.4-0.1-6.6
	c0-0.7-0.1-1.6,1.1-1c1.9,0.9,3.8,1.6,5.8,1.8s4.1,0,6.4,0c-0.8,1.5-1.5,2.7-2.1,4.1c-1,1.9-1,1.9,1.1,1.9c-0.3,1.1-0.9,2.2-1.7,2.9
	c-1.6,1.6-2.5,3.4-2.8,5.7c-0.2,1.7-1.7,1.1-2.6,1s-1.8-0.6-2.8-0.4c-0.1,0-0.3,0-0.4,0c-1.9-3-5.2-1.6-7.9-2.4
	c-7.6-2.2-12.9-6.6-14.7-14.4c-0.4-1.8-0.1-3.7-0.1-5.6c0-0.4,0.2-0.8,0.6-0.6c1.9,1,2-0.8,2.5-1.7c2.5-4.6,6.7-6.6,11.6-7.5
	c7.9-1.3,15.1,1.1,22.2,4.1c0.8,0.3,0.7,0.6,0.3,1.2c-1.6,2.5-2.6,5.2-3,8.2c-0.1,0.5-0.1,1.2-0.7,1.4c-0.5,0.1-0.8-0.5-1.1-0.8
	c-1.7-1.8-3.7-3.4-6-4.3C275.6,40.9,268.1,41,264.8,45.3z"/>
<path class="st0" d="M411.1,228.7c1.3,3.9,2.6,7.8,3.8,11.7c1.6,4.8,1.6,4.8,6.7,4.8c4.1,0,8.1,0,12.7,0c-2.8,2.1-5.3,3.9-7.7,5.7
	c-1.3,1-2.7,1.9-4,2.9c-2.7,2.1-2.7,2.1-1.7,5.2c1.4,4.1,2.7,8.3,4.1,12.4c0.1,0.3,0.3,0.6-0.1,1.2c-2.2-1.6-4.5-3.2-6.7-4.9
	c-2.1-1.6-4.3-3.2-6.4-4.7c-0.9-0.7-1.7-0.2-2.5,0.4c-4.2,3.1-8.4,6.1-12.8,9.3c1.7-5.4,3.2-10.5,4.9-15.5c0.4-1.1,0.4-1.5-0.7-2.2
	c-4.3-3-8.5-6.1-12.8-9.2c0.5-0.8,1.1-0.5,1.6-0.5c4.8,0,9.5-0.1,14.3,0c1.1,0,1.7-0.2,2-1.3C407.2,238.8,409.4,233.9,411.1,228.7z"
	/>
<path class="st0" d="M27.8,228.4c1.7,5.2,3.3,10,4.7,14.8c0.5,1.6,1.2,2.1,2.9,2.1c5.1-0.1,10.2,0,15.8,0c-3.7,2.7-7,5.2-10.4,7.6
	c-4,2.8-4,2.8-2.4,7.5c1.2,3.7,2.4,7.4,3.6,11c0.1,0.3,0.2,0.6-0.1,1.2c-3.7-2.7-7.6-5.4-11.2-8.2c-2.5-2-2.7-2.1-5.3-0.3
	c-3.9,2.8-7.8,5.6-11.9,8.5c1.7-5.4,3.2-10.5,4.9-15.6c0.4-1.2,0.2-1.5-0.8-2.2c-4.2-2.9-8.2-5.9-12.3-8.9c-0.1-0.1-0.2-0.3-0.4-0.8
	c1.7,0,3.3,0,4.8,0c3.8,0,7.6,0,11.4,0c0.9,0,1.3-0.2,1.6-1.2c1.5-4.8,3.2-9.6,4.8-14.3C27.4,229.4,27.5,229.1,27.8,228.4z"/>
<path class="st0" d="M11.1,190.2c0.5,0,1,0,1.4,0.1c3.1,0.6,2.8,0.6,3.2-2.7c0.4-3.2,0-6.4,0.9-9.7c2.6,2.1,5.8,2.1,9.2,1.9
	c-0.8,3.2-2,6.2-2.6,9.4c-0.5,2.9-0.6,2.8,2.3,3.1c6.1,0.7,12.2,0.6,18.3,0.3c1.7-0.1,3.4-0.4,5.1-0.6c0.7-0.1,1.1,0,0.9,0.8
	c-0.9,4-1.1,8.1-0.3,12.2c0.2,1.1-0.6,0.8-1.2,0.8c-3-0.1-5.8-0.8-8.7-1.5c-5.6-1.4-11-3-16.2-5.6c-1.2-0.6-1.2-0.1-1.2,0.8
	c-0.1,4,0.1,7.9,1.1,11.8c0.2,0.8,0.3,1.5,0,2.4c-3.6-1.9-7.7-2-11.6-2.6c-0.3,0-0.7,0.1-1,0.2c-1.2,0.3-1.2,0-0.8-1
	c1.7-4.6,3.1-9.2,4.4-13.9c0.7-2.4,0.1-3.7-1.9-4.7C11.7,191.5,10.8,191.2,11.1,190.2L11.1,190.2z"/>
<path class="st1" d="M38,324c3.5-0.6,6.6-1.7,9.6-2.9c1.5-0.6,1.2-1.6,1.1-2.7c-0.1-0.7,0.1-1.5,0.5-1.6c0.9-0.2,0.7,0.8,0.8,1.3
	c0.4,1.3,0.7,1.9,2.2,0.9c2.4-1.6,2.5-1.5,0.4-3.3c-0.3-0.3-0.5-0.7-1.5-0.5c2.9-1.5,5.5-2.4,7-5c0.4-0.7,0.8-0.2,1.1,0.2
	c4.7,6.1,9.5,12,11.6,19.6c0.4,1.5,0.5,3.3-0.3,4.8c-0.6,1.1-0.8,1.9,0.5,2.6c-3.6,1.2-7.1,1.5-10.6,0.3c-1-0.3-1.3,0-1.7,0.8
	c-1,2.2-1.9,4.5-2.3,6.9c-0.2,1.2-0.8,1.3-1.4,0.4c-1.7-2.7-4.4-4.3-6.9-6c-0.6-0.4-1-0.7,0-1.4c1.4-1,2.5-2.4,3.8-3.7
	c0.7-0.8,0.9-1.4,0-2.4c-1.9-2.2-1.8-2.3-4-0.8c-2.4,1.6-2.4,1.6-3.9-0.6C42.5,328.2,40.1,326.4,38,324z M64.3,331.6
	c0.9-2,0.1-3.3-0.7-4.6c-2.2-3.7-2.2-3.7-5.9-1.6c-0.9,0.5-2.6,1-2.5,1.8c0.3,1.3,1.8,1.9,3.1,2.4c0.6,0.2,1.4,0.4,2,0.2
	C62.1,329.2,63.3,329.8,64.3,331.6z"/>
<path class="st1" d="M207.7,421.2c0,2.8-0.6,5.5-1.2,8.3c-0.4,1.7-1.2,1.8-2.4,1.4c-2.9-0.8-5.8-1.4-9-0.8c2-2.9,4.1-5.6,4.9-9.1
	c0.6-2.7,0.6-5.3,0.3-7.9c-0.2-1.7-2.2-2.1-3.4-3.2c-0.3-0.3-0.7-0.6-1.1-0.8c0.4-0.6,0.9-0.4,1.3-0.3c3.2,0.3,6.2-0.2,9.2-1.4
	c1.2-0.5,1.8-0.4,2.4,0.8c1.9,3.6,4,7.2,6.3,11.3c0.2-2.9,0.5-5.3,1.1-7.7c0.3-1.3,0.8-2.6,1.4-3.9c0.6-1.4,1.4-2,3-0.8
	c2.1,1.6,4.7,2.3,7.6,2.7c-5.4,6.1-6.6,12.8-4.4,20.4c-3-0.3-5.7,0.6-8.4,1.3c-1.2,0.3-1.5-0.1-1.8-1c-1-3.3-2.9-6.1-4.8-8.9
	C208.5,421.3,208.2,421,207.7,421.2z"/>
<path class="st1" d="M381,308.5c1.9,2.6,4.3,4.4,7.3,5.8c-3.4,2.7-6.3,5.7-8.4,9.3c-0.3,0.6-1.1,1.3-0.6,1.7
	c0.5,0.5,1.5,0.3,2.2-0.3c1.4-1.3,2.9-2.5,4.5-3.6c1.7-1.2,3.5-2.2,5.6-2.6c1.4-0.3,2.4-0.7,1.7-2.4c-0.1-0.3,0-0.7,0.1-1.3
	c3.4,1.9,5.1,4.6,5.3,8.5c0.1,4.3-1,8.1-3.6,11.6c-1.3,1.8-2.7,3.7-3.2,6.1c-0.2,1.3-1.5,0.9-2.2,0.7c-2.8-0.7-5.6-1-8.7-1.2
	c1.1-1,1.9-2,3-2.7c3.5-2.4,5.5-5.9,7.6-9.3c0.3-0.5,0.7-1,0.1-1.4c-0.4-0.3-0.9,0.1-1.3,0.3c-1.9,1.3-3.6,2.9-5.3,4.5
	c-2,1.9-4.1,3.2-7.1,3c-2.1-0.2-2.1-0.1-2.4,1.9c-0.6,0.2-0.7-0.3-0.9-0.6c-2.3-4.1-1.9-8.3-0.7-12.7c1.3-4.7,4.2-8.5,6.1-12.9
	C380.2,310.1,380.6,309.4,381,308.5z"/>
<path class="st0" d="M97.2,104.4c2.1-3.7,0.2-6.3-1.8-9.1c-3.7-4.9-7.8-9.4-12.8-13c-0.4-0.3-0.8-0.7-1.3-1.2c2.9-2,5-4.5,7.4-6.8
	c0.2-0.2,0.6-0.4,0.8-0.7c1.8-2.2,1.7-2.2,3.5,0.2c3.5,4.5,6.8,9.1,9.2,14.2c0.6,1.3,1.4,1.3,2.1,0c2.1-3.9,4.9-7.3,7.6-10.7
	c0.8-1,1.4-1.5,2.4,0c1.8,2.6,3.9,5,7.1,6.7C112.4,90,104.3,96.5,97.2,104.4z"/>
<path class="st1" d="M54.9,348.7c4.1,0.8,7.7-0.2,11.3-0.4c0.7,0,1.1-0.4,1.2-1.1s0.5-1.4,0.7-1.9c0.4-0.2,0.5,0.1,0.5,0.2
	c0.4,2.2,1.6,1.9,3.5,1.9c4.1,0,5.7-2.3,6.4-5.7c0.1-0.2,0-0.6,0.6-0.7c1.7,3.8,3.9,7,9,7.1c-0.1,0.2-0.2,0.4-0.4,0.5
	c-0.7,0.2-1.5,0.4-2.2,0.7c0,0.1,0,0.3,0.1,0.4c2.3,2.3,2.3,2.3,0.7,5.1c-0.9,1.5-1.6,3.1-2.6,4.6c-0.7,1.1-0.9,1.7,0.7,2
	c0.7,0.1,1.4,0.5,2.2,0.7c-0.9,1.9-1.9,3.8-2.7,5.8c-0.5,1.2-1.1,0.8-1.9,0.3c-1.1-0.8-2-0.5-2.2,0.9c-0.2,1.3-0.9,2.6-1,3.9
	c-0.1,0.7-0.5,1.4-1.3,0.5c-2.3-2.6-5.2-4.5-8.6-6.1c1.6-1.1,2.9-2.1,3.9-3.6c0.5-0.8,0.5-1.1-0.1-1.7c-1.5-1.4-2.7-3-3.7-4.8
	c-0.4-0.8-1-1-1.8-0.5c-1.3,0.8-2.5,2.3-3.9,2c-1.2-0.2-1-2.3-1.7-3.4C60,352.8,57.6,350.8,54.9,348.7z M72.4,354
	c1.4,1.2,2.4,2,3.3,2.9c0.4,0.3,0.8,0.6,1.1-0.1c0.6-1.7,1.5-3.4,1.9-5.5C76.6,352.2,74.8,353,72.4,354z"/>
<path class="st1" d="M190.4,429c-3.8-0.2-7.5-1-11.3,0.1c0.3-1.1,0.4-2,0.7-2.7c0.4-1,0.1-1.9,0.1-2.9c0-1.8-1.5-0.3-2.2-0.9
	c-0.6-0.5-1.7-0.5-2.6-0.7c-1.2-0.3-2.3-1.6-3.3-0.8c-0.8,0.7-1.1,2.1-1.5,3.3c-0.4,1.6-1.2,1.5-2.3,0.8c-2.8-2-5.9-3.1-9.4-2.8
	c-0.5,0-1.2,0.4-1.4-0.4c-0.1-0.7,0.7-0.7,1.1-1c1.7-1.2,3.5-2.5,5.1-3.8c2.6-2,2.7-2.6,1.7-5.8c0.6-0.3,0.9,0.2,1.2,0.5
	c0.8,0.8,1.5,0.7,2.3,0.1c0.2-0.1,0.3-0.3,0.5-0.4c2.8-2.2,4.8-4.6,2.6-8.4c-0.2-0.3-0.5-0.8,0-1.6c3.6,2.6,7.5,3.2,11.7,0.6
	c0,0.2,0.1,0.4,0.1,0.5c-0.6,0.6-1.2,1.3-1.8,2c0.3,0.7,1,0.5,1.4,0.5c2.5,0,2.7,1.6,2.6,3.5c-0.1,2.4,0.5,4.7,0.9,7
	c0.4-0.1,0.6-0.2,0.9-0.3c3-0.9,3-0.9,3.2,2.2c0,0.5,0,1,0.1,1.4c0.8,1.8,0.9,3.1-1.6,3.2c-1.1,0.1-1.1,0.5-0.7,1.4
	C189.2,425.3,189.7,427.1,190.4,429z M174.4,416c1.2,0.5,2.5,0.5,3.7,0.7c1.1,0.2,1.2-0.3,1-1.1c-0.4-1.6-0.9-3.2-1.4-5.3
	C176.3,412.4,175.1,414,174.4,416z"/>
<path class="st1" d="M297.2,390.5c2.1-0.7,4.2-1,6.1-2c0.8-0.4,1.7-0.7,2.4-1.2c2.6-1.6,2.6-1.7,3.6,1.1c1.3,3.6,2.5,7.3,2.5,11.2
	c0,9-5,13.9-13.1,16.4c-0.5,0.1-1.3,0.5-1-0.7c0.2-0.7-0.3-0.4-0.6-0.5c-5.7-0.6-9.2-4.1-11.8-8.8c-1.1-2-1.7-4.1-2.6-6.1
	c-0.3-0.7-0.1-1.4,0.5-1.6c3.5-1.1,6.5-3.2,9.5-5.6c0.3,2.7,0,5.1,0.6,7.5c0.6,2.2,1.3,4.3,2.8,6c2.2,2.6,4.9,2.3,6.8-0.6
	c1.2-1.8,0.9-3.7,0.6-5.5c-0.4-3-2.2-5.4-4.4-7.4C298.5,392.1,297.6,391.6,297.2,390.5z"/>
<path class="st1" d="M389.1,291.2c2.3-3.3,4.2-6.6,4.7-10.4c0.1-0.7,0.6-0.4,0.9-0.4c6.5,1,15.3,9.4,16.3,15.9
	c0.7,4.5-0.8,8.6-3,12.5c-0.2,0.4-0.8,1-0.9,0.2c-0.2-1.7-1.1-0.4-1.3-0.3c-4,3.4-8.6,3.1-13.3,2.1c-2.4-0.5-4.6-1.4-6.7-2.7
	c-1-0.6-1.3-1-0.8-2.2c1.5-3,2.6-6.2,2.5-10.1c2.1,1.5,3.5,3.4,5.4,4.7c2.5,1.6,5.1,2.8,8.2,2.8c1.1,0,1.7-0.5,2.2-1.4
	c1.7-3.2,0.6-6-2.9-8.5c-2.9-2.1-6.3-1.9-9.5-2.4C390.5,291.1,390,291.2,389.1,291.2z"/>
<path class="st1" d="M116.4,377.9c-2-1.2-3.4-0.3-4.9,0.4c-4.4,2.1-9.1,3.3-14.3,4.1c3.5,1.8,7,2.6,10.5,3.8
	c-2.4,2.1-4.4,4.4-5.3,7.5c-0.2,0.8-0.6,0.5-1,0.2c-5.4-4.6-10.9-8.9-15.3-14.5c-0.9-1.2-2.1-2.3-2.7-3.2c7.5,1.2,14.7-1.2,22.3-3.8
	c-5-2.6-10-3.8-15.2-5.1c2.4-2,4.7-3.9,6.2-6.5c0.4-0.8,1-0.1,1.4,0.1c5.1,3.2,9.8,7,13.9,11.5C113.4,373.9,115,375.5,116.4,377.9z"
	/>
<path class="st1" d="M325.9,364.9c3.9-1.3,7.4-2.8,10.4-5c0.8-0.6,1.2-0.4,1.8,0.5c2.5,4.3,5.2,8.4,8.3,12.3
	c1.3,1.6,1.8,1.2,2.4-0.3c0.1-0.3,0.3-0.5,0.6-1.1c1.1,3,0.5,5.5,0,7.9c-1.5,6.9-5.6,12.3-10.7,17c-1.2,1.1-1.7-0.4-2-0.8
	c-1.7-2.6-4.3-4.1-7-6c3.9-1.5,7.2-3.6,10.4-5.9c0.8-0.6,1.3-1.4,2-2c0.8-0.6,0.6-1.3-0.1-1.9c-4.2-3.8-7.9-8.1-12.4-11.5
	C328.4,367.3,327.2,366.2,325.9,364.9z"/>
<path class="st1" d="M243.9,421.5c4.8,0.1,9.2,0.2,13.5-1.1c2.6-0.8,2.3-0.7,1.8-3.2c-1.2-5.2-3.3-10-5.2-14.9
	c-0.5-1.5-1.3-2.9-2-4.5c3.2,0.4,6.3,0.7,9.4,0.5c1.1-0.1,2.5-0.7,3.1-0.3c0.8,0.5,0.2,2.1,0.3,3.1c0.6,4.8,1,9.7,2.3,14.5
	c1.1,0.1,1.7-1.5,3-1.2c-2.1,5.7-6,9.8-11.1,12.8c-3,1.7-6.2,3.2-9.6,4c-1,0.2-1.4,0.3-1.5-1C247.3,427.2,246.3,424.2,243.9,421.5z"
	/>
<path class="st0" d="M28.5,162.3c3.6,1.5,6.9,3,10.3,4.3c5.1,1.8,10.3,3.4,15.7,4.2c1.1,0.2,1.6,0.6,1.1,1.8c-1.4,3.1-2,6.3-2.3,9.6
	c-0.1,1.4-0.7,0.9-1.5,0.5c-2.7-1.2-5.4-2.5-8.1-3.6c-4.7-1.9-9.6-3.2-14.8-3.4c-0.8,0-1.5-0.4-1.2-1.2
	C28.7,170.6,28.4,166.6,28.5,162.3z"/>
<path class="st1" d="M119.5,404.6c3.4,0.3,4.8-2,6.3-4.4c2.5-4.1,4-8.5,5.3-13c0.4-1.2,0.6-1.4,1.7-0.9c2.5,1,5,2.1,7.5,2.9
	c1.2,0.4,1.1,0.7,0.7,1.6c-2,4.3-4.7,8.3-7.6,12c-0.3,0.4-1,0.7-0.7,1.3c0.2,0.5,0.8,0.4,1.3,0.4c3.6,0.2,7,1.4,10.5,2.1
	c0.8,0.2,1.2,0.5,0.6,1.4c-1.3,2-2.2,4.1-2.6,6.5c-0.2,1.2-1.1,0.7-1.7,0.3c-3.2-2.1-6.6-4-10.2-5.6c-3.1-1.5-6.3-3-9.6-3.9
	C120.5,405.3,120.1,404.9,119.5,404.6z"/>
<path class="st1" d="M350.5,351.4c2.8-1.3,4.2-3.8,6.5-5.3c1.6-1,2.5-2.7,3.7-4.1c0.4-0.5-0.3-0.7-0.3-1.1c0-0.8-0.7-1.5-0.3-2.3
	h0.2c1.7,2,2.8,0.9,3.8-0.7c1-1.5,1.9-2.9,2.9-4.3c0.2-0.4,0.7-0.9,1-0.3c0.8,1.9,2.5,2.8,4.3,3.8c-2.1,2.2-4.4,4-6.2,6.3
	c4.6,3.6,9.5,6.5,15,8.7c-2.1,2.6-4.1,5.2-5.4,8.2c-0.6,1.3-1.4,0.2-1.5,0.1c-1.9-1.6-3.8-3.1-5.4-5c-1.8-2.1-3.7-4.2-5-6.8
	c-0.5-1.1-1.1-0.8-1.7,0.2c-1.3,2.3-2.5,4.6-3.4,7.1c-0.4,1.1-0.4,1.8-1.6,0.4C355.5,354.4,353.2,352.7,350.5,351.4z"/>
<path class="st1" d="M365.8,370c-2.3,2.1-4.4,4.1-6.1,6.6c-0.7,1-0.9,0.6-1.4-0.1c-1.9-2.5-3.7-5.1-5.8-7.5c-2-2.3-4.6-4.1-7.1-5.9
	c-1-0.7-1.4-1-0.3-2.3c1.6-1.9,2.8-4.2,4-6.4c0.7-1.3,1-1.3,1.8-0.1c3.5,5.1,7.8,9.4,12.3,13.5C364,368.6,364.8,369.2,365.8,370z"/>
<path class="st1" d="M128.3,382.9c-0.2,0.2-0.4,0.5-0.6,0.8c-4.5,5-8.1,10.6-11,16.6c-0.8,1.7-1.6,1.5-2.7,0.6
	c-1.7-1.3-3.6-2.3-5.7-3c-1.1-0.4-1.7-0.9-0.6-2.1c4.1-4,7-8.8,9.5-13.8c0.2-0.5,0.5-1,0.6-1.5c0.2-1.1,0.7-1.3,1.7-0.9
	c2.5,1.1,5.2,2,7.9,2.6C127.8,382.3,128.2,382.4,128.3,382.9z"/>
<path class="st1" d="M275.8,423.9c-0.8-6.9-2.2-13.2-5.4-18.9c-0.7-1.3-0.5-1.8,0.8-2.4c2.6-1.2,5-2.8,7.5-4.8
	c0.6,2.9,1,5.5,1.6,8.1c1.1,4.5,2.6,8.9,4.4,13.2c0.1,0.3,1.2,0.9-0.2,1.3C281.5,421.3,278.6,422.2,275.8,423.9z"/>
<path class="st1" d="M153.9,397.5c2.8,0.5,5.6,1,8.5,0.9c1.3-0.1,0.9,0.7,0.5,1.3c-3.4,6-5.8,12.5-7.4,19.2
	c-0.3,1.1-0.8,1.3-1.5,0.9c-2.3-1.1-4.8-1.6-7.3-2.2c-1.3-0.3-1-1-0.6-1.7c1.6-2.8,3-5.7,4.2-8.8c1.1-2.7,1.7-5.5,2.2-8.4
	C152.7,397.9,152.9,397.3,153.9,397.5z"/>
<path class="st0" d="M186.5,152c0.4-3.5,4.3-5.8,8.8-5.8C193.4,149.7,189.3,149.5,186.5,152z"/>
<path class="st0" d="M258.6,93c-0.1-0.1-0.3-0.3-0.4-0.4c0.1-0.9,0.2-1.8,0.3-2.8C258.1,90.9,260.6,92,258.6,93z"/>
<path class="st0" d="M11.1,190.2c-0.3,0.3-0.6,0-0.9,0c0-0.1,0-0.2,0-0.2C10.6,189.9,10.9,189.9,11.1,190.2L11.1,190.2z"/>
<path class="st0" d="M43.5,160.7c0.1,0.1,0.2,0.3,0.2,0.3c-0.1,0.2-0.2,0.1-0.1-0.1C43.6,160.9,43.6,160.8,43.5,160.7
	C43.6,160.7,43.5,160.7,43.5,160.7z"/>
</svg>
